<svg height="512pt" viewBox="0 0 512 512" width="512pt" xmlns="http://www.w3.org/2000/svg"><path d="m483.308594 512h-454.617188c-15.847656 0-28.691406-12.84375-28.691406-28.691406v-386.207032h512v386.207032c0 15.847656-12.84375 28.691406-28.691406 28.691406zm0 0" fill="#e7eced"/><path d="m70.621094 150.070312h397.242187v317.792969h-397.242187zm0 0" fill="#fff"/><path d="m44.136719 150.070312h158.898437v317.792969h-158.898437zm0 0" fill="#366db6"/><path d="m512 105.929688h-512v-77.238282c0-15.847656 12.84375-28.691406 28.691406-28.691406h454.617188c15.847656 0 28.691406 12.84375 28.691406 28.691406zm0 0" fill="#556080"/><path d="m35.308594 35.308594h35.3125v35.3125h-35.3125zm0 0" fill="#dd352e"/><path d="m105.929688 35.308594h35.3125v35.3125h-35.3125zm0 0" fill="#ebba16"/><path d="m176.550781 35.308594h35.3125v35.3125h-35.3125zm0 0" fill="#23a24d"/><g fill="#fff"><path d="m158.898438 344.277344h-70.621094c-4.875 0-8.828125-3.957032-8.828125-8.828125 0-4.875 3.953125-8.828125 8.828125-8.828125h70.621094c4.871093 0 8.824218 3.953125 8.824218 8.828125 0 4.871093-3.953125 8.828125-8.824218 8.828125zm0 0"/><path d="m158.898438 379.585938h-70.621094c-4.875 0-8.828125-3.953126-8.828125-8.828126 0-4.871093 3.953125-8.828124 8.828125-8.828124h70.621094c4.871093 0 8.824218 3.957031 8.824218 8.828124 0 4.875-3.953125 8.828126-8.824218 8.828126zm0 0"/><path d="m158.898438 414.898438h-70.621094c-4.875 0-8.828125-3.957032-8.828125-8.828126 0-4.875 3.953125-8.828124 8.828125-8.828124h70.621094c4.871093 0 8.824218 3.953124 8.824218 8.828124 0 4.871094-3.953125 8.828126-8.824218 8.828126zm0 0"/><path d="m149.601562 223.753906c-2.164062-10.1875-10.628906-18.390625-20.878906-20.261718-16.816406-3.070313-31.46875 9.765624-31.46875 26.023437 0 7.25 2.9375 13.773437 7.660156 18.546875 1.441407 1.457031 1.246094 3.921875-.464843 5.042969-9.03125 5.921875-15.167969 15.828125-15.890625 27.1875 9.992187 6.929687 22.09375 11.015625 35.167968 11.015625 13.074219 0 25.1875-4.085938 35.171876-11.015625-.71875-11.371094-6.859376-21.265625-15.890626-27.195313-1.714843-1.121094-1.90625-3.585937-.460937-5.042968 5.949219-6.003907 9.066406-14.804688 7.054687-24.300782zm0 0"/></g><path d="m256 194.207031h52.964844v229.515625h-52.964844zm0 0" fill="#dd352e"/><path d="m361.929688 194.207031h52.96875v229.515625h-52.96875zm0 0" fill="#ebba16"/></svg>