<svg id="Capa_1" enable-background="new 0 0 512 512" height="512" viewBox="0 0 512 512" width="512" xmlns="http://www.w3.org/2000/svg"><g><g><path d="m300.766 13.199h65.173v150.465h-65.173z" fill="#fcdd2e" transform="matrix(.707 -.707 .707 .707 35.106 261.617)"/></g><g><path d="m346.865 124.492h65.173v20.077h-65.173z" fill="#f9c301" transform="matrix(.707 -.707 .707 .707 16.012 307.717)"/></g><g><g><path d="m386.55 149.355c-1.977 0-3.955-.755-5.463-2.263l-51.24-51.24c-3.018-3.017-3.018-7.909 0-10.927 3.017-3.017 7.909-3.017 10.927 0l51.24 51.24c3.018 3.017 3.018 7.909 0 10.927-1.509 1.509-3.486 2.263-5.464 2.263z" fill="#786e79"/></g></g><g><path d="m282.089 480.78h-249.756v-83.659c0-5.523 4.477-10 10-10h229.756c5.523 0 10 4.477 10 10z" fill="#8f818f"/></g><g><path d="m209.243 387.122h-104.065l10.407-228.943h83.252z" fill="#fbe77b"/></g><g><path d="m113.558 202.765c11.267 11.033 26.675 17.853 43.653 17.853s32.386-6.82 43.653-17.853l-2.027-44.586h-83.252z" fill="#fcdd2e"/></g><g><g><path d="m137.438 387.122 6.826-146.276c.257-5.497 4.788-9.822 10.291-9.822h5.311c5.503 0 10.034 4.325 10.291 9.822l6.826 146.276z" fill="#f9c301"/></g></g><g><path d="m133.072 58.276h164.831v83.252h-164.831z" fill="#fbe77b" transform="matrix(.707 -.707 .707 .707 -7.527 181.633)"/></g><g><path d="m244.329 12.192-32.904 32.903c1.744 31.671 27.197 57.124 58.868 58.868l32.904-32.904z" fill="#fcdd2e"/></g><g><path d="m186.645 187.613 32.904-32.904c-1.744-31.671-27.197-57.124-58.868-58.868l-32.904 32.904z" fill="#fcdd2e"/></g><g><path d="m32.333 462.049h249.756v18.732h-249.756z" fill="#786e79"/></g><g><path d="m303.308 512h-292.195c-5.523 0-10-4.477-10-10v-11.22c0-5.523 4.477-10 10-10h292.195c5.523 0 10 4.477 10 10v11.22c0 5.523-4.477 10-10 10z" fill="#b1abb5"/></g><g><path d="m282.089 480.78v31.22h21.22c5.523 0 10-4.477 10-10v-11.22c0-5.523-4.477-10-10-10z" fill="#8f818f"/></g><g><circle cx="159.231" cy="158.179" fill="#eaeaea" r="43.647"/></g><g><circle cx="159.231" cy="158.179" fill="#786e79" r="16.367"/></g><g><circle cx="273.763" cy="44.813" fill="#eaeaea" r="44.813"/></g><g><circle cx="273.763" cy="44.813" fill="#786e79" r="16.805"/></g><g><g><g><path d="m386.55 141.629 33.291-33.291c2.213-2.213 5.312-3.3 8.422-2.954l24.601 2.733c2.325.258 4.493 1.3 6.147 2.954l48.858 48.858c2.607 2.607 3.622 6.409 2.662 9.968l-7.245 26.851c-1.651 6.119-9.303 8.162-13.784 3.68l-35.297-35.297c-2.414-2.414-6.328-2.414-8.741 0l-17.705 17.705z" fill="#786e79"/></g><g><path d="m386.121 142.058-32.863 32.863c-2.213 2.213-3.3 5.312-2.954 8.422l2.733 24.601c.258 2.325 1.3 4.493 2.954 6.147l48.858 48.858c2.607 2.607 6.409 3.622 9.968 2.662l26.851-7.245c6.119-1.651 8.162-9.303 3.681-13.784l-35.297-35.297c-2.414-2.414-2.414-6.328 0-8.741l17.705-17.705c11.572-11.572 11.376-30.454-.587-41.779-11.529-10.917-29.822-10.229-41.049.998z" fill="#b1abb5"/></g></g></g><g><path d="m94.772 410.615h-31.22c-4.267 0-7.726 3.459-7.726 7.726v31.219c0 4.267 3.459 7.726 7.726 7.726h31.219c4.267 0 7.726-3.459 7.726-7.726v-31.219c.001-4.267-3.458-7.726-7.725-7.726z" fill="#f59393"/></g><g><path d="m250.869 457.287c-4.267 0-7.726-3.459-7.726-7.726v-31.219c0-4.267 3.459-7.726 7.726-7.726s7.726 3.459 7.726 7.726v31.219c0 4.267-3.459 7.726-7.726 7.726z" fill="#554e57"/></g><g><path d="m153.048 410.615h-31.22c-4.267 0-7.726 3.459-7.726 7.726v31.219c0 4.267 3.459 7.726 7.726 7.726h31.22c4.267 0 7.726-3.459 7.726-7.726v-31.219c.001-4.267-3.459-7.726-7.726-7.726z" fill="#6df3bf"/></g><g><path d="m223.812 457.287c-4.267 0-7.726-3.459-7.726-7.726v-31.219c0-4.267 3.459-7.726 7.726-7.726s7.726 3.459 7.726 7.726v31.219c.001 4.267-3.459 7.726-7.726 7.726z" fill="#554e57"/></g><g><path d="m196.755 457.287c-4.267 0-7.726-3.459-7.726-7.726v-31.219c0-4.267 3.459-7.726 7.726-7.726s7.726 3.459 7.726 7.726v31.219c.001 4.267-3.458 7.726-7.726 7.726z" fill="#554e57"/></g><g><circle cx="407.154" cy="162.233" fill="#554e57" r="10.407"/></g></g></svg>